<?xml version="1.0" standalone="no"?>
<!DOCTYPE svg PUBLIC "-//W3C//DTD SVG 20010904//EN"
 "http://www.w3.org/TR/2001/REC-SVG-20010904/DTD/svg10.dtd">
<svg version="1.0" xmlns="http://www.w3.org/2000/svg"
 width="400.000000pt" height="400.000000pt" viewBox="0 0 400.000000 400.000000"
 preserveAspectRatio="xMidYMid meet">
<metadata>
Created by potrace 1.14, written by Peter Selinger 2001-2017
</metadata>
<g transform="translate(0.000000,400.000000) scale(0.100000,-0.100000)"
fill="#000000" stroke="none">
<path d="M600 2995 l0 -75 -75 0 -75 0 0 -385 0 -385 -75 0 -75 0 0 -75 c0
-53 -4 -75 -12 -76 -7 0 -34 0 -60 1 -84 3 -88 -1 -88 -86 l0 -74 -70 0 -70 0
0 -155 0 -155 70 0 70 0 0 155 0 155 80 0 80 0 0 75 0 75 75 0 75 0 0 80 0 80
920 0 920 0 0 -81 0 -80 58 1 c103 3 101 4 99 -32 0 -18 0 -52 1 -75 l2 -43
75 0 75 0 0 -155 0 -155 75 0 75 0 0 -765 0 -765 80 0 80 0 0 765 0 765 -80 0
-80 0 0 155 0 155 -75 0 -75 0 0 78 0 79 -72 0 -73 1 -3 76 -3 76 -79 0 -80 0
0 385 0 385 -75 0 -75 0 0 75 0 75 -80 0 -80 0 0 -75 0 -75 -75 0 -75 0 0 -80
0 -80 -75 0 -75 0 0 80 0 80 -80 0 -80 0 0 75 0 75 -150 0 -150 0 0 -75 0 -74
-77 -3 -78 -3 -3 -77 -3 -78 -74 0 -75 0 0 80 0 80 -75 0 -75 0 0 75 0 75 -80
0 -80 0 0 -75z m920 -154 l0 -81 80 0 80 0 0 -75 0 -75 75 0 75 0 0 75 0 75
75 0 c53 0 75 4 76 13 0 6 0 33 -1 59 -3 84 1 88 86 88 l74 0 0 -310 0 -310
-770 0 -769 0 2 303 2 302 78 3 77 3 0 -76 0 -75 75 0 75 0 0 -75 0 -75 75 0
75 0 0 75 0 75 80 0 80 0 0 74 c0 88 -16 80 168 84 l132 4 0 -81z"/>
<path d="M1220 1225 l0 -305 150 0 150 0 0 305 0 305 -150 0 -150 0 0 -305z"/>
<path d="M1980 1225 l0 -305 155 0 155 0 0 305 0 305 -155 0 -155 0 0 -305z"/>
<path d="M1680 535 l0 -75 150 0 150 0 0 75 0 75 -150 0 -150 0 0 -75z"/>
</g>
</svg>
